<?xml version="1.0" encoding="UTF-8" standalone="no"?>
<svg
   xmlns:dc="http://purl.org/dc/elements/1.1/"
   xmlns:cc="http://creativecommons.org/ns#"
   xmlns:rdf="http://www.w3.org/1999/02/22-rdf-syntax-ns#"
   xmlns:svg="http://www.w3.org/2000/svg"
   xmlns="http://www.w3.org/2000/svg"
   xmlns:sodipodi="http://sodipodi.sourceforge.net/DTD/sodipodi-0.dtd"
   xmlns:inkscape="http://www.inkscape.org/namespaces/inkscape"
   version="1.1"
   x="0px"
   y="0px"
   viewBox="0 0 16 16"
   enable-background="new 0 0 512 512"
   xml:space="preserve"
   id="svg10862"
   sodipodi:docname="catalog.svg"
   width="16"
   height="16"
   inkscape:version="0.92.3 (2405546, 2018-03-11)"><metadata
     id="metadata10868"><rdf:RDF><cc:Work
         rdf:about=""><dc:format>image/svg+xml</dc:format><dc:type
           rdf:resource="http://purl.org/dc/dcmitype/StillImage" /><dc:title></dc:title></cc:Work></rdf:RDF></metadata><defs
     id="defs10866" /><sodipodi:namedview
     pagecolor="#ffffff"
     bordercolor="#666666"
     borderopacity="1"
     objecttolerance="10"
     gridtolerance="10"
     guidetolerance="10"
     inkscape:pageopacity="0"
     inkscape:pageshadow="2"
     inkscape:window-width="1595"
     inkscape:window-height="1667"
     id="namedview10864"
     showgrid="false"
     inkscape:zoom="109.11"
     inkscape:cx="8.0017423"
     inkscape:cy="8.2208497"
     inkscape:window-x="14"
     inkscape:window-y="14"
     inkscape:window-maximized="0"
     inkscape:current-layer="svg10862" /><g
     id="g37"
     transform="matrix(0.90386963,0,0,0.9531966,0.77299408,0.63017578)"><path
       d="M 14,3.499 V 12.42 C 13.2,12.14 12.35,12 11.5,12 10.28,12 9.08,12.29 8,12.85 V 4 C 6.93,3.33 5.71,3 4.5,3 3.29,3 2.07,3.33 1,4 v 9.17 c 0,0.28 0.23,0.5 0.49,0.5 0.07,0 0.14,-0.02 0.21,-0.05 C 2.59,13.21 3.54,13 4.5,13 c 1.21,0 2.43,0.33 3.5,1 1.07,-0.67 2.29,-1 3.5,-1 0.96,0 1.91,0.21 2.8,0.62 0.07,0.03 0.14,0.05 0.21,0.05 0.26,0 0.49,-0.22 0.49,-0.5 V 4 C 14.68,3.799 14.343,3.639 14,3.499 Z"
       id="path33"
       inkscape:connector-curvature="0" /><polygon
       points="13,1 9,4 9,11 13,8 "
       id="polygon35" /></g><path
     style="fill:#b4b4b4;fill-opacity:1;stroke-width:0.06632509"
     d="M 7.3739236,13.603691 C 6.5051639,13.17502 5.8605541,13.022582 4.894027,13.017243 4.0381008,13.012517 3.2627897,13.158679 2.5836174,13.452807 2.1134322,13.65643 2.0029897,13.660811 1.8380562,13.48238 1.715534,13.34983 1.7096442,13.164763 1.6922656,8.9014003 L 1.6741554,4.4585505 2.1949474,4.1869919 C 3.9108607,3.2922569 5.947837,3.3181324 7.6150251,4.2558425 l 0.3621166,0.2036726 v 4.2195141 c 0,2.3207328 0.010833,4.2195138 0.024073,4.2195138 0.01324,0 0.2490032,-0.101766 0.5239172,-0.226149 0.9222196,-0.417248 1.4933231,-0.52929 2.6691731,-0.523649 0.993441,0.0048 1.55293,0.08878 2.161531,0.324596 0.110976,0.043 0.117293,-0.182918 0.117293,-4.1949192 0,-2.3322014 0.01895,-4.2403662 0.04211,-4.2403662 0.02316,0 0.204127,0.090772 0.402146,0.2017167 l 0.360036,0.2017165 v 4.4808879 c 0,4.3708973 -0.0032,4.4837523 -0.1317,4.5976013 -0.153552,0.136079 -0.193378,0.129331 -1.108248,-0.187782 -1.523714,-0.528153 -3.057001,-0.421816 -4.4906236,0.311433 l -0.5361939,0.274245 z"
     id="path3754"
     inkscape:connector-curvature="0" /><path
     style="fill:#b4b4b4;fill-opacity:1;stroke-width:0.06632509"
     d="m 8.9192216,7.7650066 0.00372,-3.3003349 0.381086,-0.2953495 C 9.5136222,4.0068799 10.311203,3.3783105 11.076426,2.7725014 l 1.391316,-1.1014712 -0.0016,3.3001848 -0.0016,3.3001848 -1.774576,1.3969707 -1.7745766,1.3969715 z"
     id="path3756"
     inkscape:connector-curvature="0" /><path
     style="fill:#b4b4b4;fill-opacity:1;stroke-width:0.01455018"
     d="m 13.43573,8.0542787 -0.0027,-4.0765165 0.0615,0.024158 c 0.03391,0.013319 0.05114,0.026153 0.03841,0.028605 -0.01783,0.00343 -0.02536,0.031637 -0.03306,0.1238107 -0.0156,0.1868855 -0.03663,3.0248029 -0.03932,5.306502 -0.0013,1.1403701 -0.0069,2.2076251 -0.01229,2.3716781 -0.0054,0.164054 -0.01106,-1.536153 -0.01254,-3.7782373 z"
     id="path3795"
     inkscape:connector-curvature="0" /><path
     style="fill:#b4b4b4;fill-opacity:1;stroke-width:0.01455018"
     d="m 13.76769,13.631719 c -0.08266,-0.02969 -0.262782,-0.115354 -0.256262,-0.121874 0.0033,-0.0033 0.07705,0.01549 0.163875,0.04178 0.117846,0.03568 0.186093,0.04791 0.269229,0.04826 0.103212,4.37e-4 0.115464,-0.0028 0.167327,-0.04472 0.0756,-0.06105 0.102359,-0.111397 0.120839,-0.227316 0.03694,-0.231683 0.04356,-0.963191 0.0439,-4.8467281 2.81e-4,-3.2390678 0.004,-4.0558519 0.01854,-4.0510117 0.01449,0.00483 0.01893,0.9051626 0.02185,4.423857 l 0.0037,4.4177948 -0.03093,0.08427 c -0.04033,0.109859 -0.1648,0.236218 -0.266995,0.271039 -0.08349,0.02845 -0.183674,0.03027 -0.255025,0.0046 z"
     id="path3797"
     inkscape:connector-curvature="0" /><path
     style="fill:#b4b4b4;fill-opacity:1;stroke-width:0.01455018"
     d="M 7.5402145,13.678862 C 6.9024487,13.369436 6.5993299,13.250372 6.2088733,13.155915 5.8320718,13.06476 5.5226751,13.027774 5.0375841,13.015894 4.1122216,12.993231 3.33729,13.129917 2.5713292,13.450903 2.1384999,13.632286 2.0259762,13.64444 1.8928677,13.524184 1.7752206,13.417897 1.7570905,13.333969 1.7348814,12.792828 1.7223132,12.486593 1.7050867,10.086422 1.6854832,5.9101305 L 1.6786853,4.4619238 2.0813567,4.256137 C 2.302826,4.1429543 2.5429564,4.0260521 2.6149798,3.9963543 3.4089135,3.6689876 4.210462,3.5175977 5.0084838,3.5442892 6.0087614,3.5777454 6.8402327,3.8212217 7.7802924,4.3559463 l 0.1891523,0.1075936 0.0081,4.2192072 c 0.00445,2.3205639 0.00936,4.2207909 0.010913,4.2227269 0.00496,0.0062 0.1186997,-0.04124 0.4538712,-0.189337 0.5346704,-0.23624 0.7766136,-0.32464 1.1241188,-0.410723 0.4601833,-0.113996 0.8016233,-0.144835 1.5894883,-0.143562 0.988906,0.0016 1.453408,0.0609 2.036762,0.260018 0.108518,0.03704 0.194329,0.05904 0.201672,0.05169 0.06886,-0.06885 0.07926,-0.584914 0.08978,-4.4531918 0.0081,-2.9848055 0.0175,-3.9438085 0.03882,-3.9651267 0.01169,-0.011693 0.13046,0.047904 0.473889,0.2377956 l 0.280091,0.1548702 0.0035,0.960508 0.0035,0.9605079 0.0075,-0.8075348 c 0.0041,-0.4441441 0.01106,1.1076322 0.01545,3.4483918 0.0087,4.6255028 0.01376,4.2993998 -0.06875,4.4229938 -0.03998,0.05989 -0.04068,0.05661 -0.01143,-0.05359 0.01521,-0.05733 0.0242,-0.175324 0.02804,-0.368102 l 0.0056,-0.283729 -0.01213,0.251794 c -0.01301,0.270049 -0.0335,0.420607 -0.06574,0.48294 -0.03655,0.07068 -0.120493,0.121638 -0.211178,0.128197 -0.104471,0.0076 -0.232853,-0.02722 -0.766708,-0.207708 -0.41635,-0.140759 -0.731673,-0.229208 -1.008239,-0.282811 -1.06289,-0.206009 -2.10217,-0.104281 -3.1492834,0.30826 -0.1044899,0.04117 -0.3798615,0.170567 -0.6119368,0.287557 L 8.0130952,13.90829 Z m 6.7330885,-2.365463 c -0.0022,-0.254661 -0.0041,-0.05052 -0.0041,0.453642 -10e-7,0.504163 0.0018,0.712522 0.0041,0.463019 0.0022,-0.249502 0.0022,-0.662 4e-6,-0.916661 z"
     id="path3799"
     inkscape:connector-curvature="0" /><path
     style="fill:#b4b4b4;fill-opacity:1;stroke-width:0.01455018"
     d="M 12.472724,4.9740036 V 1.6594979 l -0.05887,0.046627 c -0.03238,0.025645 -0.06216,0.043343 -0.06617,0.039328 -0.004,-0.00401 0.03066,-0.037414 0.07706,-0.074221 l 0.08436,-0.066922 0.0037,3.3202424 c 0.0032,2.9373239 0.0011,3.3227633 -0.01819,3.3420993 -0.01944,0.019442 -0.02186,-0.3443024 -0.02186,-3.2926489 z"
     id="path3801"
     inkscape:connector-curvature="0" /><path
     style="fill:#b4b4b4;fill-opacity:1;stroke-width:0.01455018"
     d="M 7.583567,13.701324 C 7.0440185,13.438397 6.869029,13.363305 6.5508025,13.258138 6.1415684,13.122896 5.7810337,13.055276 5.3140375,13.026176 c -0.2791562,-0.01739 -0.7759264,-0.02011 -0.7662362,-0.0042 0.00365,0.006 -0.069621,0.01186 -0.1628308,0.01302 -0.3643871,0.0045 -0.9199553,0.105659 -1.3625858,0.248015 -0.088029,0.02831 -0.2877297,0.102859 -0.4437804,0.165661 -0.2867055,0.115384 -0.4232545,0.158946 -0.4982303,0.158946 -0.095957,0 -0.2194179,-0.08594 -0.2731474,-0.190139 C 1.7226148,13.253412 1.7211501,13.164798 1.6845814,5.9974041 L 1.676747,4.4618689 2.0803876,4.2559029 C 2.5119019,4.0357138 2.7553218,3.9304466 3.0805854,3.823366 4.2826797,3.4276225 5.6053402,3.449654 6.7937081,3.8852154 7.1160258,4.0033515 7.3478846,4.1145325 7.8346066,4.3843475 l 0.1416154,0.078505 2.488e-4,3.7333826 c 2.656e-4,3.9825529 0.00621,4.6984439 0.039038,4.6984439 0.010743,0 0.184495,-0.07261 0.3861163,-0.16135 0.6720436,-0.295797 0.9818679,-0.402738 1.3865918,-0.478605 0.4541961,-0.08514 1.0609631,-0.116393 1.7617801,-0.09074 0.762603,0.02791 1.170903,0.09167 1.645998,0.257043 0.08169,0.02843 0.161773,0.0517 0.177959,0.0517 0.0307,0 0.03372,-0.0071 0.05892,-0.138226 0.02808,-0.146118 0.0427,-1.405585 0.05152,-4.4378039 0.0086,-2.9546416 0.01718,-3.8200566 0.03811,-3.8409911 0.01196,-0.011957 0.154008,0.058931 0.488898,0.2439743 l 0.265541,0.1467245 0.0034,0.721184 0.0034,0.721184 0.0075,-0.5674569 c 0.0041,-0.3121013 0.01143,1.3477101 0.0162,3.6884697 0.0084,4.1225324 0.0078,4.2582064 -0.01835,4.3286774 -0.01486,0.04001 -0.04056,0.08912 -0.0571,0.109126 l -0.03008,0.03638 0.01034,-0.04365 c 0.02714,-0.11457 0.03424,-0.166207 0.03304,-0.240078 -0.0012,-0.07467 -0.0021,-0.07252 -0.01317,0.03203 -0.02208,0.208533 -0.06088,0.288072 -0.164535,0.337258 -0.112671,0.05347 -0.187378,0.03733 -0.867343,-0.187363 -0.659212,-0.217834 -0.945565,-0.287303 -1.447742,-0.351221 -0.285537,-0.03634 -0.934497,-0.03658 -1.22949,-4.55e-4 -0.5374768,0.06583 -1.0743039,0.20882 -1.5697024,0.418121 -0.099088,0.04186 -0.351304,0.162882 -0.5604797,0.268928 l -0.3803315,0.192807 z m 6.674911,-0.796171 c -0.0031,-0.03377 -0.0055,-0.0025 -0.0055,0.06955 4.3e-5,0.07202 0.0025,0.09965 0.0055,0.0614 0.003,-0.03825 0.003,-0.09718 -8.8e-5,-0.130952 z m 0.01473,-1.149739 c -0.0027,-0.06563 -0.0049,-0.008 -0.0049,0.128028 1.4e-5,0.136044 0.0022,0.18974 0.0049,0.119325 0.0027,-0.07042 0.0027,-0.181725 -2.9e-5,-0.247353 z"
     id="path3803"
     inkscape:connector-curvature="0" /><path
     style="fill:#b4b4b4;fill-opacity:1;stroke-width:0.01455018"
     d="M 7.6828552,13.750856 C 6.623023,13.225625 6.1314738,13.077005 5.2849371,13.025849 c -0.2821944,-0.01705 -0.7034744,-0.0194 -0.7188679,-0.004 -0.00592,0.0059 -0.052528,0.0086 -0.1035798,0.006 -0.051051,-0.0026 -0.1011358,3.65e-4 -0.1112991,0.0066 -0.010163,0.0063 -0.042221,0.0097 -0.071239,0.0076 -0.1456337,-0.01051 -0.741582,0.09329 -1.071667,0.186674 -0.2211916,0.06257 -0.3185359,0.09702 -0.6733301,0.23829 -0.2520949,0.100374 -0.3840277,0.140803 -0.45775,0.14027 C 1.95631,13.606445 1.8072241,13.474057 1.7790163,13.342529 1.7296036,13.112125 1.7110585,12.11731 1.6990601,9.0534328 1.6946257,7.9210653 1.6869133,6.4246006 1.6819215,5.7279558 L 1.6728454,4.4613287 2.1220873,4.2355348 C 2.3691704,4.1113482 2.6433526,3.9816111 2.7313812,3.94723 3.2308416,3.7521575 3.7359782,3.6278641 4.280975,3.5659386 4.5343984,3.5371433 5.2121056,3.5412694 5.4740894,3.5732026 6.3150583,3.6757085 6.9356485,3.884112 7.7536702,4.33872 l 0.2207308,0.1226691 0.00617,4.1839073 c 0.0034,2.3011486 0.011276,4.1988226 0.017513,4.2170526 0.014357,0.04196 -0.012565,0.05104 0.4660631,-0.15711 0.6130132,-0.266592 0.8946221,-0.363798 1.2804155,-0.441974 0.4807404,-0.09742 1.2102464,-0.133038 1.9642734,-0.09591 0.637918,0.03141 1.031101,0.09838 1.490614,0.253925 0.0836,0.0283 0.163265,0.05145 0.177034,0.05145 0.03524,0 0.05695,-0.107324 0.07211,-0.356479 0.0068,-0.112036 0.01934,-1.784943 0.02783,-3.7175702 0.01467,-3.3380438 0.02513,-4.3220182 0.04617,-4.343064 0.01156,-0.011563 0.146445,0.055436 0.488807,0.2428008 l 0.265541,0.1453225 0.0033,0.5624657 0.0033,0.5624657 0.008,-0.4074049 c 0.0044,-0.2240727 0.0095,0.7875283 0.01128,2.2480022 0.0018,1.460474 0.0076,3.3690932 0.01292,4.2413762 0.0077,1.264977 0.0059,1.597749 -0.0089,1.64417 -0.02089,0.06565 -0.08728,0.187484 -0.09692,0.177848 -0.0035,-0.0035 0.0036,-0.04818 0.01562,-0.09936 0.01206,-0.05117 0.0212,-0.122506 0.02031,-0.158518 -0.0014,-0.05573 -0.0036,-0.05039 -0.01461,0.03584 -0.02537,0.197983 -0.06289,0.271106 -0.163604,0.318899 -0.112544,0.05341 -0.18298,0.03817 -0.873137,-0.188929 -0.255269,-0.084 -0.472553,-0.149486 -0.482853,-0.145533 -0.0103,0.004 -0.02079,0.0013 -0.02331,-0.0058 -0.0025,-0.0071 -0.09624,-0.03583 -0.20828,-0.06374 -0.995447,-0.248019 -1.998529,-0.218372 -2.9900605,0.08838 -0.3281203,0.101509 -0.5529786,0.196144 -1.0359235,0.435981 L 8.0073733,13.91168 Z m 6.5750208,-0.794338 c -0.0037,-0.01401 -0.0067,-0.0025 -0.0067,0.02546 0,0.02801 0.003,0.03947 0.0067,0.02546 0.0037,-0.014 0.0037,-0.03692 0,-0.05092 z"
     id="path3805"
     inkscape:connector-curvature="0" /><path
     style="fill:#b4b4b4;fill-opacity:1;stroke-width:0.01455018"
     d="m 1.992203,13.631049 c -0.127497,-0.04725 -0.2275266,-0.149126 -0.2835607,-0.288792 -0.02309,-0.05755 -0.02497,-0.232083 -0.026213,-2.433677 l -0.00134,-2.3716785 0.010975,1.8624225 c 0.013242,2.247091 0.029488,2.794772 0.088773,2.992648 0.017059,0.05694 0.1102822,0.161742 0.1726108,0.194053 0.1065337,0.05523 0.2279504,0.03603 0.5199252,-0.08221 0.2843944,-0.115171 0.5114402,-0.199356 0.5617131,-0.208274 0.061876,-0.01098 0.028642,0.0038 -0.1800301,0.08005 -0.09203,0.03363 -0.2720883,0.107335 -0.4001299,0.163799 -0.2553219,0.112591 -0.3536841,0.132077 -0.4627248,0.09167 z"
     id="path3807"
     inkscape:connector-curvature="0" /><path
     style="fill:#b4b4b4;fill-opacity:1;stroke-width:0.01455018"
     d="m 9.6222283,12.262833 c 0.013835,-0.01384 0.4422247,-0.09577 0.6461447,-0.123586 0.333286,-0.04546 0.537506,-0.05906 0.889085,-0.05923 0.479672,-2.24e-4 0.807859,0.03038 1.268587,0.118299 0.252655,0.04821 0.314708,0.07374 0.08787,0.03614 -0.766149,-0.126972 -2.074091,-0.123922 -2.7184242,0.0063 -0.1374813,0.02779 -0.1850795,0.03385 -0.1732635,0.02203 z"
     id="path3809"
     inkscape:connector-curvature="0" /><path
     style="fill:#b4b4b4;fill-opacity:1;stroke-width:0.01455018"
     d="M 7.6056903,13.71613 C 6.8243285,13.329213 6.4172758,13.182242 5.8756532,13.091483 5.6456408,13.05294 5.3351844,13.02246 5.2130267,13.026427 c -0.044477,0.0014 -0.091282,-0.0017 -0.1040114,-0.007 -0.024189,-0.01009 -0.4649289,-0.0032 -0.6534382,0.01019 -0.06002,0.0043 -0.1316617,0.0081 -0.159205,0.0085 -0.1730687,0.0027 -0.6549367,0.08138 -0.9443978,0.154278 -0.264196,0.06653 -0.4143408,0.116538 -0.7654143,0.254917 -0.298909,0.117818 -0.4331029,0.16032 -0.506186,0.16032 -0.1139337,0 -0.2604443,-0.119223 -0.2950267,-0.240078 C 1.7738976,13.327547 1.7576944,13.209691 1.74934,13.105657 1.7272233,12.830244 1.7083975,11.401397 1.6991132,9.2935107 1.6946368,8.2771809 1.6868053,6.7738076 1.6817101,5.9526811 L 1.672446,4.459724 2.1364378,4.2275942 C 2.3916333,4.0999229 2.6897016,3.9617104 2.7988118,3.9204554 4.052422,3.4464604 5.3955543,3.4147025 6.6381035,3.8296765 7.0087381,3.9534573 7.3269927,4.098785 7.7675261,4.3454158 l 0.2054863,0.1150406 0.0083,4.1770984 c 0.00456,2.2974042 0.012745,4.1952922 0.01818,4.2175282 0.01233,0.05044 -0.016377,0.0595 0.4282853,-0.135015 0.8513493,-0.372408 1.2070862,-0.473327 1.9060733,-0.540733 0.298787,-0.02881 1.373567,-0.02417 1.713216,0.0074 0.455819,0.04237 0.73765,0.09882 1.120167,0.224369 0.160173,0.05257 0.211,0.06404 0.224402,0.05064 0.0095,-0.0095 0.02595,-0.06825 0.03649,-0.130489 0.02576,-0.15213 0.04407,-1.796647 0.05619,-5.0456717 0.0091,-2.4411672 0.01819,-3.2098908 0.03816,-3.2298518 0.01175,-0.011742 0.178964,0.07135 0.503487,0.2501887 l 0.25099,0.1383166 0.0032,0.4385364 c 0.003,0.4206278 0.0035,0.4269497 0.01091,0.1548079 0.0043,-0.1560506 0.01254,1.6298895 0.01839,3.9687557 0.01057,4.2249572 0.01045,4.2529772 -0.01835,4.3286772 -0.01594,0.04191 -0.04257,0.09256 -0.05916,0.112569 l -0.03017,0.03638 0.0085,-0.03638 c 0.0047,-0.02001 0.01178,-0.06257 0.01577,-0.09458 0.0065,-0.0521 0.0052,-0.05057 -0.01186,0.01455 -0.02666,0.101523 -0.04632,0.132763 -0.114751,0.182334 -0.04877,0.03533 -0.07409,0.04319 -0.139008,0.04319 -0.106452,0 -0.180175,-0.02017 -0.723539,-0.197941 -0.255946,-0.08374 -0.481837,-0.154424 -0.501981,-0.157081 -0.02014,-0.0027 -0.05501,-0.01224 -0.07748,-0.02129 -0.06894,-0.02778 -0.312747,-0.086 -0.519329,-0.124019 -0.850111,-0.15645 -1.701916,-0.112961 -2.5390051,0.129631 -0.4048257,0.11732 -0.647743,0.217875 -1.2296722,0.509019 -0.1998416,0.09998 -0.3650355,0.181217 -0.3670977,0.180522 -0.00206,-6.95e-4 -0.1805341,-0.0888 -0.3966042,-0.195798 z m 6.6378957,-0.504815 c -0.0035,-0.0181 -0.0065,-0.0067 -0.0066,0.02529 -1.62e-4,0.03201 0.0027,0.04682 0.0063,0.03291 0.0036,-0.01391 0.0038,-0.0401 2.94e-4,-0.0582 z"
     id="path3811"
     inkscape:connector-curvature="0" /><path
     style="fill:#b4b4b4;fill-opacity:1;stroke-width:0.00916506"
     d="M 7.6708835,13.7488 C 7.4894153,13.658663 7.26258,13.549249 7.1668051,13.505659 6.5306057,13.216105 6.0501429,13.087683 5.4025305,13.03409 5.2468292,13.0212 4.5825873,13.01094 4.5891405,13.02152 c 0.00289,0.0047 -0.025566,0.0084 -0.065029,0.0086 -0.4628815,0.0017 -1.132337,0.123436 -1.6098956,0.292721 -0.06553,0.02323 -0.2263771,0.0852 -0.3574375,0.137714 C 2.1790238,13.611914 2.0815374,13.632397 1.9742553,13.58295 1.9116204,13.554036 1.824489,13.47075 1.8007284,13.417035 1.7611377,13.327534 1.7422024,13.128198 1.72738,12.644882 1.7156696,12.26304 1.7022868,10.524554 1.6908339,7.8973796 1.6857798,6.7379992 1.6790059,5.490405 1.6757808,5.1249481 l -0.00586,-0.664467 0.1226534,-0.061672 C 1.86003,4.3648896 2.0307039,4.2779739 2.1718459,4.2056631 2.6040074,3.9842554 2.9303873,3.8543595 3.3266438,3.7460656 3.8165274,3.612184 4.2304757,3.5524295 4.7380634,3.5423236 c 0.4871127,-0.0097 0.9245181,0.034443 1.3822992,0.139496 0.4487052,0.1029703 0.9359138,0.282163 1.3259769,0.4876873 0.1753809,0.092408 0.5073866,0.2776135 0.5190201,0.289529 0.00765,0.00783 0.012115,1.0406829 0.017069,3.9470047 0.00574,3.3688464 0.011254,4.4110624 0.023638,4.4702594 0.00512,0.02446 0.034274,0.01355 0.4346822,-0.162776 0.5104065,-0.224763 0.7815194,-0.325426 1.0814774,-0.401547 0.4599779,-0.116729 0.8766428,-0.157328 1.6130508,-0.157173 0.941032,1.98e-4 1.448517,0.06338 2.028831,0.252589 0.09897,0.03227 0.191393,0.05869 0.205381,0.05872 0.0315,6.4e-5 0.03891,-0.01721 0.05643,-0.131515 0.03054,-0.19925 0.04017,-0.998869 0.05102,-4.235588 0.008,-2.3880622 0.0181,-3.6565968 0.0314,-3.9455595 0.0033,-0.071109 0.0022,-0.086662 -0.0041,-0.059573 -0.02043,0.088289 -0.04439,2.6834743 -0.04687,5.0774447 -6.96e-4,0.6754652 -0.0041,1.3435988 -0.0075,1.4847408 -0.0034,0.141141 -0.007,-1.3013249 -0.0079,-3.2054813 -9.48e-4,-1.9041564 2.56e-4,-3.4621025 0.0027,-3.4621025 0.01785,0 0.07818,0.0318 0.07551,0.039803 -0.0018,0.00551 0.04645,0.034095 0.107308,0.063528 0.06086,0.029434 0.231281,0.1202203 0.378724,0.2017479 l 0.268078,0.148232 V 4.604651 c 0,0.19582 0.01654,0.2257447 0.02036,0.03684 0.0072,-0.3534077 0.01639,1.9725632 0.02029,5.1057988 l 0.0044,3.5179512 -0.02287,0.06077 c -0.02651,0.07042 -0.06462,0.132893 -0.104259,0.170864 -0.03362,0.03221 -0.03553,0.02622 -0.0057,-0.0178 0.01221,-0.01799 0.02665,-0.05344 0.03208,-0.07876 0.01616,-0.07538 0.01023,-0.08244 -0.0087,-0.01031 -0.0096,0.0368 -0.02596,0.07875 -0.03627,0.09322 -0.03556,0.04994 -0.100999,0.09543 -0.160576,0.11162 -0.0208,0.0057 -0.01634,0.0065 0.01833,0.0034 l 0.04582,-0.0041 -0.03325,0.01764 c -0.04398,0.02333 -0.147873,0.03931 -0.20504,0.03153 -0.0252,-0.0034 -0.06645,-0.01432 -0.09165,-0.02421 -0.07295,-0.02861 -0.206842,-0.09222 -0.202741,-0.09632 0.0021,-0.0021 0.04669,0.0088 0.09918,0.02406 0.118544,0.03453 0.219404,0.05605 0.257671,0.05496 0.01748,-4.95e-4 0.0035,-0.0055 -0.03497,-0.01256 -0.100752,-0.01842 -0.186732,-0.04434 -0.552398,-0.166558 -0.187881,-0.0628 -0.345634,-0.11168 -0.350563,-0.108634 -0.0049,0.003 -0.009,7.33e-4 -0.009,-0.0051 0,-0.0059 -0.0062,-0.0083 -0.01375,-0.0054 -0.0076,0.0029 -0.01375,0.0018 -0.01375,-0.0024 0,-0.0087 -0.183354,-0.06399 -0.222253,-0.06706 -0.01386,-0.0011 -0.0252,-0.0047 -0.0252,-0.008 0,-0.01351 -0.314876,-0.09115 -0.531573,-0.131069 -0.286656,-0.05281 -0.497992,-0.07608 -0.797898,-0.08786 -0.595281,-0.02338 -1.159039,0.04617 -1.7526219,0.216216 C 9.221293,13.331065 8.968226,13.435413 8.4055652,13.714764 8.1845829,13.824478 8.0031147,13.913893 8.0023025,13.913465 8.0014904,13.913034 7.8523518,13.838938 7.6708835,13.7488 Z m 6.5732495,-0.533285 c -0.0022,-0.0114 -0.0041,-0.0042 -0.0042,0.01593 -10e-5,0.02016 0.0017,0.02949 0.004,0.02073 0.0023,-0.0088 0.0024,-0.02526 1.84e-4,-0.03666 z"
     id="path3813"
     inkscape:connector-curvature="0" /></svg>